<?xml version="1.0" encoding="UTF-8"?>
<svg width="217px" height="50px" viewBox="0 0 217 50" version="1.1" xmlns="http://www.w3.org/2000/svg" xmlns:xlink="http://www.w3.org/1999/xlink">
    <!-- Generator: Sketch 53.2 (72643) - https://sketchapp.com -->
    <title>ISS-Tracker-logomobile</title>
    <desc>Created with Sketch.</desc>
    <defs>
        <path d="M1,0.241935484 L3.03189288,0.241935484 L3.03189288,9.75806452 L1,9.75806452 L1,0.241935484 Z M4.8814364,0.241935484 L7.64272672,0.241935484 L11.563238,6.85483871 L11.5892879,6.85483871 L11.5892879,0.241935484 L13.6211808,0.241935484 L13.6211808,9.75806452 L10.9640901,9.75806452 L6.93937918,2.98387097 L6.91332928,2.98387097 L6.91332928,9.75806452 L4.8814364,9.75806452 L4.8814364,0.241935484 Z M17.2811929,2.09677419 L14.6501522,2.09677419 L14.6501522,0.241935484 L21.9441266,0.241935484 L21.9441266,2.09677419 L19.3130858,2.09677419 L19.3130858,9.75806452 L17.2811929,9.75806452 L17.2811929,2.09677419 Z M23.0512477,0.241935484 L29.3162508,0.241935484 L29.3162508,2.17741935 L25.0831406,2.17741935 L25.0831406,3.9516129 L29.0818016,3.9516129 L29.0818016,5.88709677 L25.0831406,5.88709677 L25.0831406,7.82258065 L29.5506999,7.82258065 L29.5506999,9.75806452 L23.0512477,9.75806452 L23.0512477,0.241935484 Z M31.1788192,0.241935484 L34.7476567,0.241935484 C35.2165574,0.241935484 35.6615723,0.288978024 36.0827145,0.383064516 C36.5038568,0.477151008 36.8728935,0.633959476 37.1898357,0.853494624 C37.5067778,1.07302977 37.7585911,1.36872574 37.945283,1.7405914 C38.131975,2.11245706 38.2253195,2.5761621 38.2253195,3.13172043 C38.2253195,3.8037668 38.0559968,4.37499765 37.7173463,4.84543011 C37.3786958,5.31586257 36.8837525,5.61379866 36.2325015,5.73924731 L38.5769933,9.75806452 L36.1413268,9.75806452 L34.2136336,5.95430108 L33.2107121,5.95430108 L33.2107121,9.75806452 L31.1788192,9.75806452 L31.1788192,0.241935484 Z M33.2107121,4.18010753 L34.4090079,4.18010753 C34.5913582,4.18010753 34.7845597,4.17338716 34.9886184,4.15994624 C35.192677,4.14650531 35.3771954,4.10618313 35.5421789,4.03897849 C35.7071625,3.97177386 35.8439232,3.86648817 35.952465,3.72311828 C36.0610068,3.57974839 36.1152769,3.3781375 36.1152769,3.11827957 C36.1152769,2.87634288 36.0675192,2.68369247 35.9720024,2.54032258 C35.8764856,2.39695269 35.7549206,2.28718676 35.6073037,2.21102151 C35.4596868,2.13485625 35.2903641,2.08333347 35.0993305,2.05645161 C34.9082969,2.02956976 34.7216077,2.01612903 34.5392575,2.01612903 L33.2107121,2.01612903 L33.2107121,4.18010753 Z M39.6189897,0.241935484 L42.38028,0.241935484 L46.3007912,6.85483871 L46.3268411,6.85483871 L46.3268411,0.241935484 L48.358734,0.241935484 L48.358734,9.75806452 L45.7016433,9.75806452 L41.6769324,2.98387097 L41.6508825,2.98387097 L41.6508825,9.75806452 L39.6189897,9.75806452 L39.6189897,0.241935484 Z M53.2691418,0.241935484 L54.9493609,0.241935484 L58.9610469,9.75806452 L56.6686549,9.75806452 L55.8741327,7.74193548 L52.2922702,7.74193548 L51.5237979,9.75806452 L49.2835058,9.75806452 L53.2691418,0.241935484 Z M54.0506391,3.01075269 L52.930493,5.96774194 L55.1838101,5.96774194 L54.0506391,3.01075269 Z M61.6702374,2.09677419 L59.0391966,2.09677419 L59.0391966,0.241935484 L66.333171,0.241935484 L66.333171,2.09677419 L63.7021302,2.09677419 L63.7021302,9.75806452 L61.6702374,9.75806452 L61.6702374,2.09677419 Z M67.3360925,0.241935484 L69.3679854,0.241935484 L69.3679854,9.75806452 L67.3360925,9.75806452 L67.3360925,0.241935484 Z M70.7225806,5 C70.7225806,4.23834745 70.8463165,3.54839019 71.0937918,2.93010753 C71.3412672,2.31182487 71.6864251,1.78539644 72.1292757,1.35080645 C72.5721264,0.916216465 73.0974609,0.582438441 73.7052952,0.349462366 C74.3131294,0.11648629 74.9773955,0 75.6981132,0 C76.418831,0 77.083097,0.11648629 77.6909312,0.349462366 C78.2987655,0.582438441 78.8241,0.916216465 79.2669507,1.35080645 C79.7098014,1.78539644 80.0549592,2.31182487 80.3024346,2.93010753 C80.5499099,3.54839019 80.6736458,4.23834745 80.6736458,5 C80.6736458,5.76165255 80.5499099,6.45160981 80.3024346,7.06989247 C80.0549592,7.68817513 79.7098014,8.21460356 79.2669507,8.64919355 C78.8241,9.08378353 78.2987655,9.41756156 77.6909312,9.65053763 C77.083097,9.88351371 76.418831,10 75.6981132,10 C74.9773955,10 74.3131294,9.88351371 73.7052952,9.65053763 C73.0974609,9.41756156 72.5721264,9.08378353 72.1292757,8.64919355 C71.6864251,8.21460356 71.3412672,7.68817513 71.0937918,7.06989247 C70.8463165,6.45160981 70.7225806,5.76165255 70.7225806,5 Z M72.8326233,5 C72.8326233,5.44803091 72.8999182,5.85797305 73.03451,6.22983871 C73.1691019,6.60170437 73.3623035,6.92428179 73.6141205,7.19758065 C73.8659376,7.4708795 74.1676793,7.68369099 74.5193548,7.83602151 C74.8710304,7.98835202 75.2639459,8.06451613 75.6981132,8.06451613 C76.1322805,8.06451613 76.5251961,7.98835202 76.8768716,7.83602151 C77.2285471,7.68369099 77.5302889,7.4708795 77.7821059,7.19758065 C78.0339229,6.92428179 78.2271245,6.60170437 78.3617164,6.22983871 C78.4963082,5.85797305 78.5636032,5.44803091 78.5636032,5 C78.5636032,4.5609297 78.4963082,4.15322769 78.3617164,3.77688172 C78.2271245,3.40053575 78.0339229,3.07571821 77.7821059,2.80241935 C77.5302889,2.5291205 77.2285471,2.31630901 76.8768716,2.16397849 C76.5251961,2.01164798 76.1322805,1.93548387 75.6981132,1.93548387 C75.2639459,1.93548387 74.8710304,2.01164798 74.5193548,2.16397849 C74.1676793,2.31630901 73.8659376,2.5291205 73.6141205,2.80241935 C73.3623035,3.07571821 73.1691019,3.40053575 73.03451,3.77688172 C72.8999182,4.15322769 72.8326233,4.5609297 72.8326233,5 Z M82.0542909,0.241935484 L84.8155813,0.241935484 L88.7360925,6.85483871 L88.7621424,6.85483871 L88.7621424,0.241935484 L90.7940353,0.241935484 L90.7940353,9.75806452 L88.1369446,9.75806452 L84.1122337,2.98387097 L84.0861838,2.98387097 L84.0861838,9.75806452 L82.0542909,9.75806452 L82.0542909,0.241935484 Z M95.7044431,0.241935484 L97.3846622,0.241935484 L101.396348,9.75806452 L99.1039562,9.75806452 L98.309434,7.74193548 L94.7275715,7.74193548 L93.9590992,9.75806452 L91.7188071,9.75806452 L95.7044431,0.241935484 Z M96.4859404,3.01075269 L95.3657943,5.96774194 L97.6191114,5.96774194 L96.4859404,3.01075269 Z M102.39927,0.241935484 L104.431163,0.241935484 L104.431163,7.82258065 L108.195374,7.82258065 L108.195374,9.75806452 L102.39927,9.75806452 L102.39927,0.241935484 Z M117.729641,2.5672043 C117.564657,2.35214946 117.341065,2.19310087 117.058856,2.09005376 C116.776647,1.98700665 116.509638,1.93548387 116.257821,1.93548387 C116.110204,1.93548387 115.958248,1.95340484 115.801948,1.98924731 C115.645647,2.02508978 115.498033,2.08109281 115.359099,2.15725806 C115.220166,2.23342332 115.107284,2.33422876 115.02045,2.45967742 C114.933617,2.58512608 114.890201,2.7374543 114.890201,2.91666667 C114.890201,3.20340645 114.994399,3.42293831 115.2028,3.57526882 C115.4112,3.72759933 115.673867,3.85752634 115.990809,3.96505376 C116.307752,4.07258118 116.648568,4.18010699 117.013268,4.28763441 C117.377969,4.39516183 117.718785,4.54749005 118.035727,4.74462366 C118.352669,4.94175726 118.615337,5.20609153 118.823737,5.53763441 C119.032137,5.86917728 119.136336,6.31272124 119.136336,6.86827957 C119.136336,7.39695605 119.040821,7.85842097 118.849787,8.25268817 C118.658753,8.64695538 118.400428,8.97401304 118.074802,9.23387097 C117.749177,9.4937289 117.371457,9.6863793 116.941631,9.81182796 C116.511806,9.93727661 116.058107,10 115.580523,10 C114.981373,10 114.425647,9.90591492 113.913329,9.71774194 C113.401012,9.52956895 112.923435,9.2249125 112.480584,8.80376344 L113.926354,7.16397849 C114.134755,7.45071828 114.397422,7.67249026 114.714364,7.82930108 C115.031306,7.9861119 115.359098,8.06451613 115.697748,8.06451613 C115.862732,8.06451613 116.029884,8.04435504 116.199209,8.00403226 C116.368534,7.96370948 116.52049,7.90322621 116.655082,7.82258065 C116.789674,7.74193508 116.898214,7.63888952 116.980706,7.51344086 C117.063198,7.3879922 117.104443,7.24014422 117.104443,7.06989247 C117.104443,6.78315269 116.998074,6.55690047 116.785332,6.39112903 C116.57259,6.22535759 116.305581,6.08422997 115.984297,5.96774194 C115.663013,5.8512539 115.315685,5.73476761 114.942301,5.61827957 C114.568917,5.50179153 114.221588,5.34498306 113.900304,5.14784946 C113.579021,4.95071586 113.312012,4.69086183 113.09927,4.36827957 C112.886528,4.04569731 112.780158,3.62007433 112.780158,3.09139785 C112.780158,2.58064261 112.877844,2.13261841 113.07322,1.74731183 C113.268595,1.36200524 113.529091,1.03942782 113.854717,0.779569892 C114.180342,0.519711962 114.555892,0.324821438 114.981376,0.194892473 C115.40686,0.0649635081 115.845362,0 116.296896,0 C116.817897,0 117.321523,0.0761641129 117.807791,0.228494624 C118.294058,0.380825134 118.73256,0.636198925 119.123311,0.994623656 L117.729641,2.5672043 Z M120.647231,0.241935484 L124.072794,0.241935484 C124.550378,0.241935484 125.001905,0.286737903 125.427389,0.376344086 C125.852873,0.465950269 126.22408,0.620518616 126.541023,0.840053763 C126.857965,1.05958891 127.109778,1.35528488 127.29647,1.72715054 C127.483162,2.0990162 127.576506,2.56720148 127.576506,3.13172043 C127.576506,3.68727876 127.489674,4.15322392 127.316007,4.52956989 C127.14234,4.90591586 126.903552,5.20609207 126.599635,5.43010753 C126.295718,5.65412298 125.935364,5.81317157 125.518564,5.90725806 C125.101763,6.00134456 124.650236,6.0483871 124.163968,6.0483871 L122.679124,6.0483871 L122.679124,9.75806452 L120.647231,9.75806452 L120.647231,0.241935484 Z M122.679124,4.27419355 L124.033719,4.27419355 C124.216069,4.27419355 124.391904,4.25627258 124.561229,4.22043011 C124.730555,4.18458763 124.882511,4.12410437 125.017103,4.03897849 C125.151695,3.95385262 125.260235,3.83736633 125.342727,3.68951613 C125.425219,3.54166593 125.466464,3.35573589 125.466464,3.13172043 C125.466464,2.88978374 125.412194,2.69489321 125.303652,2.54704301 C125.19511,2.39919281 125.056179,2.28494664 124.886853,2.20430108 C124.717528,2.12365551 124.528668,2.07213273 124.320268,2.04973118 C124.111867,2.02732964 123.912154,2.01612903 123.72112,2.01612903 L122.679124,2.01612903 L122.679124,4.27419355 Z M131.887766,0.241935484 L133.567985,0.241935484 L137.579671,9.75806452 L135.287279,9.75806452 L134.492757,7.74193548 L130.910895,7.74193548 L130.142422,9.75806452 L127.90213,9.75806452 L131.887766,0.241935484 Z M132.669264,3.01075269 L131.549117,5.96774194 L133.802435,5.96774194 L132.669264,3.01075269 Z M144.534997,2.71505376 C144.33528,2.46415645 144.089979,2.27150605 143.799087,2.13709677 C143.508195,2.0026875 143.17172,1.93548387 142.789653,1.93548387 C142.407586,1.93548387 142.053745,2.01164798 141.728119,2.16397849 C141.402494,2.31630901 141.120289,2.5291205 140.881497,2.80241935 C140.642705,3.07571821 140.456016,3.40053575 140.321424,3.77688172 C140.186832,4.15322769 140.119537,4.5609297 140.119537,5 C140.119537,5.44803091 140.186832,5.85797305 140.321424,6.22983871 C140.456016,6.60170437 140.640534,6.92428179 140.874985,7.19758065 C141.109435,7.4708795 141.385127,7.68369099 141.702069,7.83602151 C142.019012,7.98835202 142.359828,8.06451613 142.724528,8.06451613 C143.141329,8.06451613 143.510366,7.97491129 143.831649,7.79569892 C144.152933,7.61648656 144.417771,7.36559301 144.626172,7.04301075 L146.319416,8.34677419 C145.928665,8.91129315 145.433722,9.32795565 144.834571,9.59677419 C144.23542,9.86559274 143.618912,10 142.985027,10 C142.26431,10 141.600044,9.88351371 140.992209,9.65053763 C140.384375,9.41756156 139.859041,9.08378353 139.41619,8.64919355 C138.973339,8.21460356 138.628181,7.68817513 138.380706,7.06989247 C138.133231,6.45160981 138.009495,5.76165255 138.009495,5 C138.009495,4.23834745 138.133231,3.54839019 138.380706,2.93010753 C138.628181,2.31182487 138.973339,1.78539644 139.41619,1.35080645 C139.859041,0.916216465 140.384375,0.582438441 140.992209,0.349462366 C141.600044,0.11648629 142.26431,0 142.985027,0 C143.245528,0 143.516878,0.0246413306 143.799087,0.0739247312 C144.081296,0.123208132 144.359159,0.201612366 144.632684,0.309139785 C144.90621,0.416667204 145.168877,0.560034946 145.420694,0.739247312 C145.672511,0.918459677 145.898275,1.13799153 146.097991,1.39784946 L144.534997,2.71505376 Z M147.504687,0.241935484 L153.76969,0.241935484 L153.76969,2.17741935 L149.536579,2.17741935 L149.536579,3.9516129 L153.53524,3.9516129 L153.53524,5.88709677 L149.536579,5.88709677 L149.536579,7.82258065 L154.004139,7.82258065 L154.004139,9.75806452 L147.504687,9.75806452 L147.504687,0.241935484 Z M164.046379,2.5672043 C163.881395,2.35214946 163.657802,2.19310087 163.375593,2.09005376 C163.093385,1.98700665 162.826376,1.93548387 162.574559,1.93548387 C162.426942,1.93548387 162.274986,1.95340484 162.118685,1.98924731 C161.962385,2.02508978 161.81477,2.08109281 161.675837,2.15725806 C161.536903,2.23342332 161.424022,2.33422876 161.337188,2.45967742 C161.250355,2.58512608 161.206939,2.7374543 161.206939,2.91666667 C161.206939,3.20340645 161.311137,3.42293831 161.519537,3.57526882 C161.727938,3.72759933 161.990605,3.85752634 162.307547,3.96505376 C162.624489,4.07258118 162.965306,4.18010699 163.330006,4.28763441 C163.694707,4.39516183 164.035523,4.54749005 164.352465,4.74462366 C164.669407,4.94175726 164.932074,5.20609153 165.140475,5.53763441 C165.348875,5.86917728 165.453074,6.31272124 165.453074,6.86827957 C165.453074,7.39695605 165.357558,7.85842097 165.166525,8.25268817 C164.975491,8.64695538 164.717165,8.97401304 164.39154,9.23387097 C164.065914,9.4937289 163.688194,9.6863793 163.258369,9.81182796 C162.828543,9.93727661 162.374845,10 161.897261,10 C161.29811,10 160.742384,9.90591492 160.230067,9.71774194 C159.71775,9.52956895 159.240173,9.2249125 158.797322,8.80376344 L160.243092,7.16397849 C160.451492,7.45071828 160.71416,7.67249026 161.031102,7.82930108 C161.348044,7.9861119 161.675835,8.06451613 162.014486,8.06451613 C162.179469,8.06451613 162.346621,8.04435504 162.515946,8.00403226 C162.685272,7.96370948 162.837228,7.90322621 162.97182,7.82258065 C163.106412,7.74193508 163.214952,7.63888952 163.297444,7.51344086 C163.379935,7.3879922 163.421181,7.24014422 163.421181,7.06989247 C163.421181,6.78315269 163.314811,6.55690047 163.102069,6.39112903 C162.889327,6.22535759 162.622319,6.08422997 162.301035,5.96774194 C161.979751,5.8512539 161.632422,5.73476761 161.259038,5.61827957 C160.885654,5.50179153 160.538326,5.34498306 160.217042,5.14784946 C159.895758,4.95071586 159.628749,4.69086183 159.416007,4.36827957 C159.203265,4.04569731 159.096896,3.62007433 159.096896,3.09139785 C159.096896,2.58064261 159.194582,2.13261841 159.389957,1.74731183 C159.585333,1.36200524 159.845829,1.03942782 160.171455,0.779569892 C160.49708,0.519711962 160.872629,0.324821438 161.298113,0.194892473 C161.723597,0.0649635081 162.1621,0 162.613634,0 C163.134634,0 163.638261,0.0761641129 164.124528,0.228494624 C164.610796,0.380825134 165.049298,0.636198925 165.440049,0.994623656 L164.046379,2.5672043 Z M168.748387,2.09677419 L166.117346,2.09677419 L166.117346,0.241935484 L173.411321,0.241935484 L173.411321,2.09677419 L170.78028,2.09677419 L170.78028,9.75806452 L168.748387,9.75806452 L168.748387,2.09677419 Z M177.475107,0.241935484 L179.155326,0.241935484 L183.167012,9.75806452 L180.87462,9.75806452 L180.080097,7.74193548 L176.498235,7.74193548 L175.729763,9.75806452 L173.48947,9.75806452 L177.475107,0.241935484 Z M178.256604,3.01075269 L177.136458,5.96774194 L179.389775,5.96774194 L178.256604,3.01075269 Z M185.876202,2.09677419 L183.245161,2.09677419 L183.245161,0.241935484 L190.539136,0.241935484 L190.539136,2.09677419 L187.908095,2.09677419 L187.908095,9.75806452 L185.876202,9.75806452 L185.876202,2.09677419 Z M191.542057,0.241935484 L193.57395,0.241935484 L193.57395,9.75806452 L191.542057,9.75806452 L191.542057,0.241935484 Z M194.928545,5 C194.928545,4.23834745 195.052281,3.54839019 195.299757,2.93010753 C195.547232,2.31182487 195.89239,1.78539644 196.33524,1.35080645 C196.778091,0.916216465 197.303426,0.582438441 197.91126,0.349462366 C198.519094,0.11648629 199.18336,0 199.904078,0 C200.624796,0 201.289062,0.11648629 201.896896,0.349462366 C202.50473,0.582438441 203.030065,0.916216465 203.472915,1.35080645 C203.915766,1.78539644 204.260924,2.31182487 204.508399,2.93010753 C204.755875,3.54839019 204.87961,4.23834745 204.87961,5 C204.87961,5.76165255 204.755875,6.45160981 204.508399,7.06989247 C204.260924,7.68817513 203.915766,8.21460356 203.472915,8.64919355 C203.030065,9.08378353 202.50473,9.41756156 201.896896,9.65053763 C201.289062,9.88351371 200.624796,10 199.904078,10 C199.18336,10 198.519094,9.88351371 197.91126,9.65053763 C197.303426,9.41756156 196.778091,9.08378353 196.33524,8.64919355 C195.89239,8.21460356 195.547232,7.68817513 195.299757,7.06989247 C195.052281,6.45160981 194.928545,5.76165255 194.928545,5 Z M197.038588,5 C197.038588,5.44803091 197.105883,5.85797305 197.240475,6.22983871 C197.375067,6.60170437 197.568268,6.92428179 197.820085,7.19758065 C198.071902,7.4708795 198.373644,7.68369099 198.72532,7.83602151 C199.076995,7.98835202 199.469911,8.06451613 199.904078,8.06451613 C200.338245,8.06451613 200.731161,7.98835202 201.082836,7.83602151 C201.434512,7.68369099 201.736254,7.4708795 201.988071,7.19758065 C202.239888,6.92428179 202.433089,6.60170437 202.567681,6.22983871 C202.702273,5.85797305 202.769568,5.44803091 202.769568,5 C202.769568,4.5609297 202.702273,4.15322769 202.567681,3.77688172 C202.433089,3.40053575 202.239888,3.07571821 201.988071,2.80241935 C201.736254,2.5291205 201.434512,2.31630901 201.082836,2.16397849 C200.731161,2.01164798 200.338245,1.93548387 199.904078,1.93548387 C199.469911,1.93548387 199.076995,2.01164798 198.72532,2.16397849 C198.373644,2.31630901 198.071902,2.5291205 197.820085,2.80241935 C197.568268,3.07571821 197.375067,3.40053575 197.240475,3.77688172 C197.105883,4.15322769 197.038588,4.5609297 197.038588,5 Z M206.260256,0.241935484 L209.021546,0.241935484 L212.942057,6.85483871 L212.968107,6.85483871 L212.968107,0.241935484 L215,0.241935484 L215,9.75806452 L212.342909,9.75806452 L208.318198,2.98387097 L208.292149,2.98387097 L208.292149,9.75806452 L206.260256,9.75806452 L206.260256,0.241935484 Z" id="path-1"></path>
    </defs>
    <g id="Symbols" stroke="none" stroke-width="1" fill="none" fill-rule="evenodd">
        <g id="ISS-Tracker-logo">
            <g>
                <path d="M17.2737091,22.7412869 L17.2737091,49.1085791 L9.31197254,49.1085791 L9.31197254,22.7412869 L0,22.7412869 L0,15.8914209 L26.5856816,15.8914209 L26.5856816,22.7412869 L17.2737091,22.7412869 Z M47.8635388,49.1085791 L40.7398798,35.924933 L38.0394078,35.924933 L38.0394078,49.1085791 L30.2173509,49.1085791 L30.2173509,15.8914209 L42.7885138,15.8914209 C44.371557,15.8914209 45.9157771,16.0556284 47.4212201,16.3840483 C48.9266632,16.7124681 50.2768857,17.2676458 51.4719282,18.0495979 C52.6669706,18.8315499 53.6214383,19.8637112 54.3353597,21.1461126 C55.0492812,22.428514 55.4062366,24.0236723 55.4062366,25.9316354 C55.4062366,28.1836574 54.8009644,30.075953 53.5904019,31.6085791 C52.3798395,33.1412052 50.7037012,34.2359216 48.5619368,34.8927614 L57.1755114,49.1085791 L47.8635388,49.1085791 Z M48.158418,26.0723861 C48.158418,25.290434 47.9954601,24.6570623 47.6695394,24.172252 C47.3436187,23.6874417 46.9245842,23.3121104 46.4124231,23.0462466 C45.9002621,22.7803829 45.3260295,22.6005367 44.6897082,22.5067024 C44.0533869,22.4128682 43.4403548,22.3659517 42.8505936,22.3659517 L38.6136461,22.3659517 L38.6136461,30.1072386 L42.384995,30.1072386 C43.0368363,30.1072386 43.7041877,30.0525028 44.3870691,29.9430295 C45.0699505,29.8335562 45.6907425,29.6380711 46.2494636,29.3565684 C46.8081847,29.0750656 47.2660188,28.6684566 47.6229795,28.1367292 C47.9799403,27.6050018 48.158418,26.9168943 48.158418,26.0723861 Z M125.277071,44.5107239 C123.818188,46.1997403 122.017891,47.5368583 119.876126,48.522118 C117.734362,49.5073776 115.266714,50 112.473108,50 C109.927823,50 107.576574,49.5777522 105.419289,48.733244 C103.262005,47.8887357 101.391869,46.692367 99.8088256,45.1441019 C98.2257824,43.5958368 96.9841985,41.7426381 96.0840366,39.5844504 C95.1838748,37.4262627 94.7338006,35.049164 94.7338006,32.4530831 C94.7338006,29.794446 95.1916347,27.3860698 96.1073165,25.227882 C97.0229984,23.0696943 98.287862,21.2321345 99.9019454,19.7151475 C101.516029,18.1981604 103.409444,17.0330693 105.582249,16.2198391 C107.755053,15.406609 110.098543,15 112.612788,15 C114.940793,15 117.229963,15.4144284 119.480368,16.2432976 C121.730772,17.0721668 123.554349,18.2841743 124.951151,19.8793566 L119.550207,25.3217158 C118.805246,24.2895391 117.827499,23.5232375 116.616936,23.0227882 C115.406374,22.5223389 114.16479,22.272118 112.892147,22.272118 C111.495344,22.272118 110.214961,22.5301583 109.050958,23.0462466 C107.886956,23.562335 106.885929,24.2739007 106.047847,25.1809651 C105.209766,26.0880296 104.557934,27.1592878 104.092333,28.3947721 C103.626732,29.6302564 103.393935,30.9830132 103.393935,32.4530831 C103.393935,33.9544311 103.626732,35.3306461 104.092333,36.5817694 C104.557934,37.8328928 105.202006,38.904151 106.024567,39.7955764 C106.847129,40.6870018 107.832636,41.3829287 108.981119,41.883378 C110.129601,42.3838273 111.386705,42.6340483 112.752467,42.6340483 C114.335511,42.6340483 115.716773,42.3212721 116.896295,41.6957105 C118.075818,41.0701488 119.022525,40.2569308 119.736447,39.2560322 L125.277071,44.5107239 Z M148.836361,49.1085791 L136.591117,33.8136729 L136.497997,33.8136729 L136.497997,49.1085791 L128.67594,49.1085791 L128.67594,15.8914209 L136.497997,15.8914209 L136.497997,29.4034853 L136.637677,29.4034853 L148.417322,15.8914209 L158.381133,15.8914209 L144.180375,31.1863271 L159.21921,49.1085791 L148.836361,49.1085791 Z M161.780003,49.1085791 L161.780003,15.8914209 L183.942497,15.8914209 L183.942497,22.69437 L169.46238,22.69437 L169.46238,28.9343164 L183.15098,28.9343164 L183.15098,35.3619303 L169.46238,35.3619303 L169.46238,42.2587131 L184.780575,42.2587131 L184.780575,49.1085791 L161.780003,49.1085791 Z M207.688027,49.1085791 L200.564368,35.924933 L197.863896,35.924933 L197.863896,49.1085791 L190.04184,49.1085791 L190.04184,15.8914209 L202.613002,15.8914209 C204.196046,15.8914209 205.740266,16.0556284 207.245709,16.3840483 C208.751152,16.7124681 210.101374,17.2676458 211.296417,18.0495979 C212.491459,18.8315499 213.445927,19.8637112 214.159848,21.1461126 C214.87377,22.428514 215.230725,24.0236723 215.230725,25.9316354 C215.230725,28.1836574 214.625453,30.075953 213.414891,31.6085791 C212.204328,33.1412052 210.52819,34.2359216 208.386425,34.8927614 L217,49.1085791 L207.688027,49.1085791 Z M206.74131,26.0723861 C206.74131,25.290434 206.578352,24.6570623 206.252432,24.172252 C205.926511,23.6874417 205.507476,23.3121104 204.995315,23.0462466 C204.483154,22.7803829 203.908922,22.6005367 203.2726,22.5067024 C202.636279,22.4128682 202.023247,22.3659517 201.433486,22.3659517 L197.196538,22.3659517 L197.196538,30.1072386 L200.967887,30.1072386 C201.619729,30.1072386 202.28708,30.0525028 202.969961,29.9430295 C203.652843,29.8335562 204.273635,29.6380711 204.832356,29.3565684 C205.391077,29.0750656 205.848911,28.6684566 206.205872,28.1367292 C206.562833,27.6050018 206.74131,26.9168943 206.74131,26.0723861 Z" id="TRACKER" fill="#F0F8FF" fill-rule="nonzero"></path>
                <polygon id="Rectangle" fill="#EAAC1B" points="65.6696203 16 70 16 63.3303797 49 59 49"></polygon>
                <polygon id="Rectangle" fill="#EAAC1B" points="71.5938943 16 76 16 69.4061057 49 65 49"></polygon>
                <polygon id="Rectangle" fill="#EAAC1B" transform="translate(83.500000, 32.500000) scale(-1, 1) translate(-83.500000, -32.500000) " points="84.6696203 16 89 16 82.3303797 49 78 49"></polygon>
                <polygon id="Rectangle" fill="#EAAC1B" transform="translate(90.500000, 32.500000) scale(-1, 1) translate(-90.500000, -32.500000) " points="91.5938943 16 96 16 89.4061057 49 85 49"></polygon>
                <g id="INTERNATIONALSPACESTATION" fill-rule="nonzero">
                    <use fill="#FFFFFF" xlink:href="#path-1"></use>
                    <use fill="#F0F8FF" xlink:href="#path-1"></use>
                </g>
            </g>
        </g>
    </g>
</svg>